<?xml version="1.0" encoding="utf-8"?>
<!-- Generator: Adobe Illustrator 26.0.3, SVG Export Plug-In . SVG Version: 6.00 Build 0)  -->
<svg version="1.1" id="Слой_1" xmlns="http://www.w3.org/2000/svg" xmlns:xlink="http://www.w3.org/1999/xlink" x="0px" y="0px"
	 viewBox="0 0 519 200" style="enable-background:new 0 0 519 200;" xml:space="preserve">
<style type="text/css">
	.st0{fill:#F6C700;}
	.st1{fill-opacity:0;stroke:#000000;stroke-opacity:0;}
</style>
<g>
	<g>
		<g>
			<g>
				<path id="d1pwhf9wy2" class="st0" d="M519,18.1c-1.4-8.8-9.9-15.8-20.7-17.1c-47.4,0-427,0-474.4,0C12,2.5,2.9,10.7,2.9,20.7
					c0,16,0,143.8,0,159.8c0,11,11.1,19.9,24.8,19.9c46.7,0,420,0,466.7,0c12.6,0,23-7.6,24.6-17.4C519,150,519,34.6,519,18.1z"/>
			</g>
			<g>
				<g>
					<path id="d1pwhf9wy2_00000044179631807833880830000003265653479191429774_" class="st1" d="M519,18.1
						c-1.4-8.8-9.9-15.8-20.7-17.1c-47.4,0-427,0-474.4,0C12,2.5,2.9,10.7,2.9,20.7c0,16,0,143.8,0,159.8c0,11,11.1,19.9,24.8,19.9
						c46.7,0,420,0,466.7,0c12.6,0,23-7.6,24.6-17.4C519,150,519,34.6,519,18.1z"/>
				</g>
			</g>
		</g>
		<g>
			<g>
				<path id="g5jjnq26yS" d="M50.6,41.1H82v120.8H50.6V41.1z"/>
			</g>
			<g>
				<g>
					<path id="g5jjnq26yS_00000163073123367064079290000018212370329531556267_" class="st1" d="M50.6,41.1H82v120.8H50.6V41.1z"/>
				</g>
			</g>
		</g>
		<g>
			<g>
				<path id="i3Prh1JpXt" d="M141.3,96.7c-2.7-18.4-4.2-28.7-4.5-30.7c-1.3-9.9-2.6-18.4-3.8-25.8c-2.7,0-16.3,0-40.7,0v120.8h27.5
					l0.1-79.8l11.6,79.8h19.6l11-81.6l0.1,81.6h27.4V40.3h-41L141.3,96.7z"/>
			</g>
			<g>
				<g>
					<path id="i3Prh1JpXt_00000168089753212521843500000012623482301519695022_" class="st1" d="M141.3,96.7
						c-2.7-18.4-4.2-28.7-4.5-30.7c-1.3-9.9-2.6-18.4-3.8-25.8c-2.7,0-16.3,0-40.7,0v120.8h27.5l0.1-79.8l11.6,79.8h19.6l11-81.6
						l0.1,81.6h27.4V40.3h-41L141.3,96.7z"/>
				</g>
			</g>
		</g>
		<g>
			<g>
				<path id="a4ov9rRGQm" d="M241.5,65.4c0.3,1.5,0.5,5,0.5,10.5c0,4.7,0,42.2,0,46.8c0,8-0.5,13-1.6,14.8c-1,1.8-3.8,2.7-8.3,2.7
					c0-7.9,0-71.4,0-79.3c3.4,0,5.8,0.4,7,1.1C240.3,62.7,241.1,63.9,241.5,65.4z M255.6,159.9c3.7-0.8,6.9-2.3,9.4-4.3
					c2.5-2.1,4.3-4.9,5.3-8.6c1-3.6,1.6-10.9,1.6-21.7c0-4.2,0-38.2,0-42.4c0-11.4-0.4-19.1-1.1-23c-0.7-3.9-2.4-7.4-5.2-10.6
					c-2.8-3.2-6.9-5.5-12.2-6.9c-5.4-1.4-14.1-2.1-29.3-2.1c-1.6,0-9.4,0-23.4,0v120.8h38C247.5,160.8,253.1,160.4,255.6,159.9z"/>
			</g>
			<g>
				<g>
					<path id="a4ov9rRGQm_00000160161180689910014690000015371640464116264868_" class="st1" d="M241.5,65.4c0.3,1.5,0.5,5,0.5,10.5
						c0,4.7,0,42.2,0,46.8c0,8-0.5,13-1.6,14.8c-1,1.8-3.8,2.7-8.3,2.7c0-7.9,0-71.4,0-79.3c3.4,0,5.8,0.4,7,1.1
						C240.3,62.7,241.1,63.9,241.5,65.4z M255.6,159.9c3.7-0.8,6.9-2.3,9.4-4.3c2.5-2.1,4.3-4.9,5.3-8.6c1-3.6,1.6-10.9,1.6-21.7
						c0-4.2,0-38.2,0-42.4c0-11.4-0.4-19.1-1.1-23c-0.7-3.9-2.4-7.4-5.2-10.6c-2.8-3.2-6.9-5.5-12.2-6.9c-5.4-1.4-14.1-2.1-29.3-2.1
						c-1.6,0-9.4,0-23.4,0v120.8h38C247.5,160.8,253.1,160.4,255.6,159.9z"/>
				</g>
			</g>
		</g>
		<g>
			<g>
				<path id="fk968BpsX" d="M358.7,143.8c-0.6,1.5-3.1,2.3-5,2.3c-1.9,0-3.1-0.7-3.7-2.2c-0.6-1.5-0.9-4.9-0.9-10.2
					c0-3.2,0-28.7,0-31.9c0-5.5,0.3-8.9,0.8-10.3c0.6-1.4,1.8-2,3.6-2c1.9,0,4.5,0.8,5.1,2.3c0.7,1.6,1,4.9,1,10c0,2.1,0,12.4,0,31
					C359.3,139.1,359,142.8,358.7,143.8z M318.7,162.1H347c1.2-4.6,1.8-7.2,2-7.7c2.6,3.1,5.4,5.4,8.5,7c3.1,1.5,7.7,2.3,11.2,2.3
					c5,0,9.2-1.3,12.9-3.9c3.6-2.6,5.9-5.7,6.9-9.2c1-3.5,1.5-8.9,1.5-16.2c0-3.4,0-30.5,0-33.9c0-7.3-0.2-12.1-0.5-14.3
					c-0.3-2.2-1.3-4.5-2.9-6.8c-1.6-2.3-3.9-4.1-7-5.4c-3.1-1.3-6.7-1.9-10.8-1.9c-3.6,0-8.2,0.7-11.3,2.1c-3.1,1.4-5.9,3.6-8.4,6.5
					c0-2.6,0-15.7,0-39.3h-30.2V162.1z"/>
			</g>
			<g>
				<g>
					<path id="fk968BpsX_00000132081095945764414200000002248861109924648096_" class="st1" d="M358.7,143.8c-0.6,1.5-3.1,2.3-5,2.3
						c-1.9,0-3.1-0.7-3.7-2.2c-0.6-1.5-0.9-4.9-0.9-10.2c0-3.2,0-28.7,0-31.9c0-5.5,0.3-8.9,0.8-10.3c0.6-1.4,1.8-2,3.6-2
						c1.9,0,4.5,0.8,5.1,2.3c0.7,1.6,1,4.9,1,10c0,2.1,0,12.4,0,31C359.3,139.1,359,142.8,358.7,143.8z M318.7,162.1H347
						c1.2-4.6,1.8-7.2,2-7.7c2.6,3.1,5.4,5.4,8.5,7c3.1,1.5,7.7,2.3,11.2,2.3c5,0,9.2-1.3,12.9-3.9c3.6-2.6,5.9-5.7,6.9-9.2
						c1-3.5,1.5-8.9,1.5-16.2c0-3.4,0-30.5,0-33.9c0-7.3-0.2-12.1-0.5-14.3c-0.3-2.2-1.3-4.5-2.9-6.8c-1.6-2.3-3.9-4.1-7-5.4
						c-3.1-1.3-6.7-1.9-10.8-1.9c-3.6,0-8.2,0.7-11.3,2.1c-3.1,1.4-5.9,3.6-8.4,6.5c0-2.6,0-15.7,0-39.3h-30.2V162.1z"/>
				</g>
			</g>
		</g>
	</g>
	<g>
		<g>
			<path id="g5jjnq26yS_00000072268131521430265130000014669302563100814250_" d="M437.5,41.8H469v120.8h-31.5V41.8z"/>
		</g>
		<g>
			<g>
				<path id="g5jjnq26yS_00000090973998558639157300000001404852403779664006_" class="st1" d="M437.5,41.8H469v120.8h-31.5V41.8z"
					/>
			</g>
		</g>
	</g>
	<g>
		<g>
			<path id="g5jjnq26yS_00000160901636171595898140000005369742823315509404_" d="M397,75h31v86.5h-31V75z"/>
		</g>
		<g>
			<g>
				<path id="g5jjnq26yS_00000050661508995000049830000010390781148682459018_" class="st1" d="M397,75h31v86.5h-31V75z"/>
			</g>
		</g>
	</g>
	<g>
		<g>
			<path id="g5jjnq26yS_00000129886118714372699490000001494223998217157016_" d="M396,41.6h31.2V69H396V41.6z"/>
		</g>
		<g>
			<g>
				<path id="g5jjnq26yS_00000080173687491245927650000016382135550602502302_" class="st1" d="M396,41.6h31.2V69H396V41.6z"/>
			</g>
		</g>
	</g>
	<g>
		<g>
			<path id="g5jjnq26yS_00000068663659686193048800000012412199103070593950_" d="M279.9,77.6h31v86.5h-31V77.6z"/>
		</g>
		<g>
			<g>
				<path id="g5jjnq26yS_00000145781406185807493490000018044072818308116634_" class="st1" d="M279.9,77.6h31v86.5h-31V77.6z"/>
			</g>
		</g>
	</g>
	<g>
		<g>
			<path id="g5jjnq26yS_00000053507961977476811070000014522227716631189928_" d="M279.8,41.1h31.2v27.4h-31.2V41.1z"/>
		</g>
		<g>
			<g>
				<path id="g5jjnq26yS_00000144298218376589113530000007549267213660292777_" class="st1" d="M279.8,41.1h31.2v27.4h-31.2V41.1z"
					/>
			</g>
		</g>
	</g>
</g>
</svg>
